<svg width="32" height="32" viewBox="0 0 32 32" fill="none" xmlns="http://www.w3.org/2000/svg">
<circle cx="16" cy="16" r="16" fill="#2E2FB2"/>
<path d="M12.2581 16.5216H14.0119V23.7419C14.0119 23.8845 14.1274 24 14.27 24H17.2437C17.3863 24 17.5018 23.8845 17.5018 23.7419V16.5556H19.518C19.6491 16.5556 19.7594 16.4572 19.7743 16.327L20.0806 13.6689C20.089 13.5957 20.0658 13.5225 20.0169 13.4676C19.9679 13.4127 19.8978 13.3813 19.8243 13.3813H17.5019V11.715C17.5019 11.2127 17.7723 10.958 18.3058 10.958C18.3818 10.958 19.8243 10.958 19.8243 10.958C19.9668 10.958 20.0823 10.8424 20.0823 10.6999V8.25997C20.0823 8.11742 19.9668 8.00191 19.8243 8.00191H17.7316C17.7169 8.00119 17.6841 8 17.6358 8C17.2727 8 16.0106 8.07128 15.0136 8.98844C13.909 10.0048 14.0626 11.2217 14.0993 11.4327V13.3812H12.2581C12.1155 13.3812 12 13.4967 12 13.6393V16.2635C12 16.406 12.1155 16.5216 12.2581 16.5216Z" fill="white"/>
</svg>
