<svg width="32" height="32" viewBox="0 0 32 32" fill="none" xmlns="http://www.w3.org/2000/svg">
<circle cx="16" cy="16" r="16" fill="#2E2FB2"/>
<path d="M19.7713 7H12.2287C9.34559 7 7 9.34559 7 12.2287V19.7713C7 22.6544 9.34559 25 12.2287 25H19.7713C22.6544 25 25 22.6544 25 19.7713V12.2287C25 9.34559 22.6544 7 19.7713 7ZM23.5938 19.7713C23.5938 21.879 21.879 23.5938 19.7713 23.5938H12.2287C10.121 23.5938 8.40625 21.879 8.40625 19.7713V12.2287C8.40625 10.121 10.121 8.40625 12.2287 8.40625H19.7713C21.879 8.40625 23.5938 10.121 23.5938 12.2287V19.7713Z" fill="white"/>
<path d="M16 11.1484C13.3248 11.1484 11.1484 13.3248 11.1484 16C11.1484 18.6752 13.3248 20.8516 16 20.8516C18.6752 20.8516 20.8516 18.6752 20.8516 16C20.8516 13.3248 18.6752 11.1484 16 11.1484ZM16 19.4453C14.1003 19.4453 12.5547 17.8997 12.5547 16C12.5547 14.1003 14.1003 12.5547 16 12.5547C17.8997 12.5547 19.4453 14.1003 19.4453 16C19.4453 17.8997 17.8997 19.4453 16 19.4453Z" fill="white"/>
<path d="M20.9219 11.7812C21.3102 11.7812 21.625 11.4665 21.625 11.0781C21.625 10.6898 21.3102 10.375 20.9219 10.375C20.5335 10.375 20.2188 10.6898 20.2188 11.0781C20.2188 11.4665 20.5335 11.7812 20.9219 11.7812Z" fill="white"/>
</svg>
