<svg width="32" height="32" viewBox="0 0 32 32" fill="none" xmlns="http://www.w3.org/2000/svg">
<circle cx="16" cy="16" r="16" fill="#2E2FB2"/>
<path d="M22.4591 17.4634C23.0549 18.0451 23.6838 18.5924 24.2182 19.2328C24.4542 19.5174 24.6777 19.811 24.8487 20.1413C25.091 20.6108 24.8715 21.1274 24.4506 21.1554L21.8338 21.1542C21.1589 21.2102 20.6205 20.9385 20.1677 20.4771C19.8054 20.1081 19.4699 19.7153 19.1216 19.3338C18.9787 19.1779 18.8293 19.0312 18.6507 18.9152C18.2934 18.6833 17.9834 18.7543 17.7792 19.1269C17.5713 19.5059 17.5242 19.9255 17.5037 20.3478C17.4757 20.964 17.2895 21.126 16.6705 21.1542C15.3477 21.2166 14.0923 21.0164 12.9261 20.3491C11.8979 19.7609 11.1006 18.9304 10.4066 17.9902C9.05543 16.1594 8.0207 14.1478 7.09072 12.0797C6.88138 11.6138 7.03447 11.3637 7.54856 11.3548C8.40224 11.3382 9.25579 11.3394 10.1105 11.3536C10.4574 11.3587 10.6871 11.5577 10.8211 11.8855C11.2829 13.0211 11.8481 14.1016 12.5575 15.1031C12.7464 15.3698 12.939 15.6364 13.2133 15.8241C13.5168 16.0319 13.7478 15.963 13.8906 15.6249C13.9812 15.4106 14.0208 15.1797 14.0413 14.9501C14.1089 14.1603 14.1178 13.3719 13.9992 12.5848C13.9263 12.0936 13.6497 11.7757 13.1595 11.6827C12.9094 11.6353 12.9467 11.5422 13.0678 11.3995C13.2781 11.1533 13.4759 11 13.8703 11H16.8277C17.2932 11.0919 17.3966 11.301 17.4604 11.7695L17.4629 15.0545C17.4578 15.2359 17.5535 15.7741 17.8802 15.8941C18.1416 15.9796 18.3139 15.7704 18.4708 15.6046C19.1789 14.8531 19.6842 13.965 20.1357 13.0453C20.3361 12.641 20.5083 12.221 20.6753 11.8014C20.799 11.49 20.9931 11.3368 21.3438 11.3436L24.1901 11.3461C24.2745 11.3461 24.3599 11.3474 24.4417 11.3614C24.9213 11.4431 25.0527 11.6494 24.9046 12.1178C24.6712 12.8526 24.217 13.4649 23.773 14.0801C23.2983 14.7369 22.7907 15.3712 22.32 16.0319C21.8875 16.6352 21.9218 16.9394 22.4591 17.4634Z" fill="white"/>
</svg>
