<svg width="32" height="32" viewBox="0 0 32 32" fill="none" xmlns="http://www.w3.org/2000/svg">
<circle cx="16" cy="16" r="16" fill="#2E2FB2"/>
<path d="M23.9688 11.566C23.3812 11.8266 22.7499 12.0027 22.0872 12.0819C22.7636 11.6764 23.2831 11.0344 23.5277 10.2693C22.8946 10.6448 22.1935 10.9174 21.4472 11.0643C20.8497 10.4276 19.9982 10.0298 19.0558 10.0298C17.2465 10.0298 15.7797 11.4966 15.7797 13.3059C15.7797 13.5626 15.8087 13.8127 15.8645 14.0525C13.1417 13.9158 10.7276 12.6116 9.1118 10.6294C8.82979 11.1133 8.66819 11.676 8.66819 12.2765C8.66819 13.4131 9.24657 14.4159 10.1257 15.0034C9.58862 14.9864 9.08345 14.839 8.64178 14.5936C8.64147 14.6073 8.64147 14.621 8.64147 14.6348C8.64147 16.2222 9.77079 17.5463 11.2695 17.8473C10.9946 17.9221 10.7052 17.9623 10.4064 17.9623C10.1952 17.9623 9.99002 17.9417 9.78994 17.9034C10.2069 19.2049 11.4168 20.1523 12.8504 20.1786C11.7292 21.0574 10.3165 21.5811 8.78154 21.5811C8.51708 21.5811 8.25631 21.5656 8 21.5352C9.44986 22.4649 11.172 23.0073 13.0221 23.0073C19.0482 23.0073 22.3435 18.0151 22.3435 13.6857C22.3435 13.5437 22.3403 13.4024 22.334 13.2618C22.9742 12.8 23.5296 12.223 23.9688 11.566Z" fill="white"/>
</svg>
