<svg width="87" height="18" viewBox="0 0 87 18" fill="none" xmlns="http://www.w3.org/2000/svg">
<path d="M25.3202 4.43359H27.8631C29.0428 4.43359 29.8944 4.60547 30.4178 4.94922C30.9452 5.29297 31.2088 5.83594 31.2088 6.57812C31.2088 7.07812 31.0799 7.49414 30.8221 7.82617C30.5643 8.1582 30.1932 8.36719 29.7088 8.45312V8.51172C30.3104 8.625 30.7518 8.84961 31.0331 9.18555C31.3182 9.51758 31.4608 9.96875 31.4608 10.5391C31.4608 11.3086 31.1913 11.9121 30.6522 12.3496C30.117 12.7832 29.3709 13 28.4139 13H25.3202V4.43359ZM26.7206 7.97266H28.0682C28.6541 7.97266 29.0819 7.88086 29.3514 7.69727C29.6209 7.50977 29.7557 7.19336 29.7557 6.74805C29.7557 6.3457 29.6092 6.05469 29.3163 5.875C29.0272 5.69531 28.5663 5.60547 27.9334 5.60547H26.7206V7.97266ZM26.7206 9.10938V11.8223H28.2088C28.7948 11.8223 29.2362 11.7109 29.5331 11.4883C29.8338 11.2617 29.9842 10.9062 29.9842 10.4219C29.9842 9.97656 29.8319 9.64648 29.5272 9.43164C29.2225 9.2168 28.7596 9.10938 28.1385 9.10938H26.7206ZM37.1149 6.51953H38.6266L35.9489 9.64258L38.8551 13H37.2731L34.4723 9.71289V13H33.0954V6.51953H34.4723V9.66602L37.1149 6.51953ZM45.6752 9.74805C45.6752 10.8066 45.4037 11.6328 44.8608 12.2266C44.3178 12.8203 43.5619 13.1172 42.5932 13.1172C41.9877 13.1172 41.4526 12.9805 40.9877 12.707C40.5229 12.4336 40.1655 12.041 39.9155 11.5293C39.6655 11.0176 39.5405 10.4238 39.5405 9.74805C39.5405 8.69727 39.81 7.87695 40.3491 7.28711C40.8881 6.69727 41.6479 6.40234 42.6284 6.40234C43.5659 6.40234 44.308 6.70508 44.8549 7.31055C45.4018 7.91211 45.6752 8.72461 45.6752 9.74805ZM40.9584 9.74805C40.9584 11.2441 41.5112 11.9922 42.6166 11.9922C43.7104 11.9922 44.2573 11.2441 44.2573 9.74805C44.2573 8.26758 43.7065 7.52734 42.6049 7.52734C42.0268 7.52734 41.6069 7.71875 41.3452 8.10156C41.0873 8.48438 40.9584 9.0332 40.9584 9.74805ZM48.6399 6.51953V9.12109H51.6926V6.51953H53.0696V13H51.6926V10.2051H48.6399V13H47.2629V6.51953H48.6399ZM59.9131 6.51953V7.59766H57.8037V13H56.4209V7.59766H54.3115V6.51953H59.9131ZM65.2156 13L64.9403 12.0977H64.8934C64.5809 12.4922 64.2664 12.7617 63.95 12.9062C63.6336 13.0469 63.2274 13.1172 62.7313 13.1172C62.0946 13.1172 61.5965 12.9453 61.2371 12.6016C60.8817 12.2578 60.7039 11.7715 60.7039 11.1426C60.7039 10.4746 60.952 9.9707 61.4481 9.63086C61.9442 9.29102 62.7 9.10547 63.7156 9.07422L64.8348 9.03906V8.69336C64.8348 8.2793 64.7371 7.9707 64.5418 7.76758C64.3504 7.56055 64.0516 7.45703 63.6453 7.45703C63.3133 7.45703 62.9949 7.50586 62.6903 7.60352C62.3856 7.70117 62.0926 7.81641 61.8113 7.94922L61.366 6.96484C61.7176 6.78125 62.1024 6.64258 62.5203 6.54883C62.9383 6.45117 63.3328 6.40234 63.7039 6.40234C64.5281 6.40234 65.1492 6.58203 65.5672 6.94141C65.9891 7.30078 66.2 7.86523 66.2 8.63477V13H65.2156ZM63.1649 12.0625C63.6649 12.0625 64.0653 11.9238 64.366 11.6465C64.6707 11.3652 64.8231 10.9727 64.8231 10.4688V9.90625L63.991 9.94141C63.3426 9.96484 62.8699 10.0742 62.5731 10.2695C62.2801 10.4609 62.1336 10.7559 62.1336 11.1543C62.1336 11.4434 62.2196 11.668 62.3914 11.8281C62.5633 11.9844 62.8211 12.0625 63.1649 12.0625ZM72.1412 6.51953H73.6529L70.9752 9.64258L73.8815 13H72.2994L69.4986 9.71289V13H68.1217V6.51953H69.4986V9.66602L72.1412 6.51953ZM79.8227 6.51953V7.59766H77.7133V13H76.3305V7.59766H74.2211V6.51953H79.8227ZM83.9006 13.1172C82.8928 13.1172 82.1037 12.8242 81.5334 12.2383C80.967 11.6484 80.6838 10.8379 80.6838 9.80664C80.6838 8.74805 80.9475 7.91602 81.4748 7.31055C82.0022 6.70508 82.7268 6.40234 83.6486 6.40234C84.5041 6.40234 85.1799 6.66211 85.676 7.18164C86.1721 7.70117 86.4201 8.41602 86.4201 9.32617V10.0703H82.1018C82.1213 10.6992 82.2912 11.1836 82.6115 11.5234C82.9318 11.8594 83.383 12.0273 83.965 12.0273C84.3479 12.0273 84.7033 11.9922 85.0315 11.9219C85.3635 11.8477 85.719 11.7266 86.0979 11.5586V12.6777C85.7619 12.8379 85.4221 12.9512 85.0783 13.0176C84.7346 13.084 84.342 13.1172 83.9006 13.1172ZM83.6486 7.44531C83.2111 7.44531 82.8596 7.58398 82.594 7.86133C82.3322 8.13867 82.176 8.54297 82.1252 9.07422H85.0666C85.0588 8.53906 84.9299 8.13477 84.6799 7.86133C84.4299 7.58398 84.0861 7.44531 83.6486 7.44531Z" fill="#6A6A6A"/>
<path d="M13.7703 9.75729C14.301 10.2755 14.8612 10.763 15.3372 11.3334C15.5475 11.5869 15.7466 11.8485 15.8989 12.1427C16.1147 12.5609 15.9192 13.0211 15.5442 13.046L13.2133 13.045C12.6121 13.0949 12.1325 12.8528 11.7293 12.4418C11.4066 12.1131 11.1077 11.7632 10.7974 11.4234C10.6702 11.2845 10.537 11.1538 10.3779 11.0505C10.0597 10.844 9.78353 10.9072 9.60169 11.2391C9.41649 11.5767 9.37449 11.9504 9.3563 12.3266C9.33133 12.8755 9.16542 13.0198 8.61407 13.0449C7.43578 13.1005 6.31753 12.9222 5.2787 12.3278C4.36284 11.8038 3.65263 11.0641 3.03447 10.2266C1.83089 8.59582 0.909193 6.80389 0.0808054 4.96176C-0.105658 4.54672 0.0307068 4.32393 0.488638 4.31605C1.24905 4.30127 2.00936 4.30233 2.77067 4.315C3.07973 4.31952 3.28433 4.49678 3.40366 4.78875C3.81507 5.80034 4.31847 6.76278 4.95036 7.65488C5.11863 7.89239 5.29022 8.1299 5.53456 8.29707C5.80487 8.48217 6.01068 8.42082 6.13784 8.1197C6.21854 7.92877 6.25386 7.72312 6.27205 7.51862C6.3323 6.81509 6.34024 6.11276 6.23457 5.4117C6.1697 4.97416 5.92326 4.69092 5.48667 4.60812C5.26388 4.56591 5.29705 4.48301 5.40492 4.35584C5.59228 4.13652 5.76849 4 6.11976 4H8.75406C9.16878 4.08185 9.26088 4.26816 9.31766 4.68545L9.31992 7.61162C9.3154 7.77316 9.40061 8.25254 9.69158 8.35947C9.92447 8.43559 10.078 8.24928 10.2177 8.10162C10.8484 7.4322 11.2986 6.64108 11.7007 5.8219C11.8792 5.46169 12.0327 5.08761 12.1814 4.71384C12.2916 4.43648 12.4645 4.30001 12.7769 4.30606L15.3122 4.30832C15.3874 4.30832 15.4635 4.30942 15.5363 4.32188C15.9635 4.39469 16.0806 4.57847 15.9486 4.99566C15.7407 5.6502 15.3362 6.19566 14.9407 6.74365C14.5179 7.32869 14.0657 7.89371 13.6464 8.48222C13.2611 9.01964 13.2917 9.29053 13.7703 9.75729Z" fill="#6A6A6A"/>
</svg>
