<svg width="304" height="32" viewBox="0 0 304 32" fill="none" xmlns="http://www.w3.org/2000/svg">
<mask id="mask0" mask-type="alpha" maskUnits="userSpaceOnUse" x="6" y="18" width="5" height="4">
<path fill-rule="evenodd" clip-rule="evenodd" d="M10.3684 19.7455C10.3684 20.7067 9.58035 21.4856 8.60786 21.4856C7.63537 21.4856 6.84735 20.7067 6.84735 19.7455C6.84735 18.7843 7.63537 18.0054 8.60786 18.0054C9.58035 18.0054 10.3684 18.7843 10.3684 19.7455Z" fill="white"/>
</mask>
<g mask="url(#mask0)">
<path fill-rule="evenodd" clip-rule="evenodd" d="M2.70569 25.5796H14.5099V13.9121H2.70569V25.5796Z" fill="white"/>
</g>
<mask id="mask1" mask-type="alpha" maskUnits="userSpaceOnUse" x="13" y="5" width="6" height="7">
<path fill-rule="evenodd" clip-rule="evenodd" d="M18.8277 8.50862C18.8277 9.94958 17.6448 11.1188 16.187 11.1188C14.7282 11.1188 13.5462 9.94958 13.5462 8.50862C13.5462 7.06678 14.7282 5.89844 16.187 5.89844C17.6448 5.89844 18.8277 7.06678 18.8277 8.50862Z" fill="white"/>
</mask>
<g mask="url(#mask1)">
<path fill-rule="evenodd" clip-rule="evenodd" d="M9.40454 15.2128H22.9692V1.80518H9.40454V15.2128Z" fill="white"/>
</g>
<mask id="mask2" mask-type="alpha" maskUnits="userSpaceOnUse" x="21" y="9" width="6" height="6">
<path fill-rule="evenodd" clip-rule="evenodd" d="M26.407 12.2547C26.407 13.6957 25.225 14.8649 23.7662 14.8649C22.3084 14.8649 21.1255 13.6957 21.1255 12.2547C21.1255 10.8129 22.3084 9.64453 23.7662 9.64453C25.225 9.64453 26.407 10.8129 26.407 12.2547Z" fill="white"/>
</mask>
<g mask="url(#mask2)">
<path fill-rule="evenodd" clip-rule="evenodd" d="M16.9838 18.9589H30.5485V5.55127H16.9838V18.9589Z" fill="white"/>
</g>
<mask id="mask3" mask-type="alpha" maskUnits="userSpaceOnUse" x="28" y="13" width="6" height="6">
<path fill-rule="evenodd" clip-rule="evenodd" d="M33.9862 16.0001C33.9862 17.4419 32.8042 18.6103 31.3455 18.6103C29.8867 18.6103 28.7047 17.4419 28.7047 16.0001C28.7047 14.5582 29.8867 13.3899 31.3455 13.3899C32.8042 13.3899 33.9862 14.5582 33.9862 16.0001Z" fill="white"/>
</mask>
<g mask="url(#mask3)">
<path fill-rule="evenodd" clip-rule="evenodd" d="M24.563 22.704H38.1277V9.29639H24.563V22.704Z" fill="white"/>
</g>
<mask id="mask4" mask-type="alpha" maskUnits="userSpaceOnUse" x="21" y="17" width="6" height="6">
<path fill-rule="evenodd" clip-rule="evenodd" d="M26.407 19.7457C26.407 21.1875 25.225 22.3559 23.7662 22.3559C22.3084 22.3559 21.1255 21.1875 21.1255 19.7457C21.1255 18.3038 22.3084 17.1355 23.7662 17.1355C25.225 17.1355 26.407 18.3038 26.407 19.7457Z" fill="white"/>
</mask>
<g mask="url(#mask4)">
<path fill-rule="evenodd" clip-rule="evenodd" d="M16.9838 26.4498H30.5485V13.0422H16.9838V26.4498Z" fill="white"/>
</g>
<mask id="mask5" mask-type="alpha" maskUnits="userSpaceOnUse" x="36" y="17" width="6" height="6">
<path fill-rule="evenodd" clip-rule="evenodd" d="M41.565 19.7457C41.565 21.1875 40.3829 22.3559 38.9242 22.3559C37.4655 22.3559 36.2834 21.1875 36.2834 19.7457C36.2834 18.3038 37.4655 17.1355 38.9242 17.1355C40.3829 17.1355 41.565 18.3038 41.565 19.7457Z" fill="white"/>
</mask>
<g mask="url(#mask5)">
<path fill-rule="evenodd" clip-rule="evenodd" d="M32.1418 26.4498H45.7065V13.0422H32.1418V26.4498Z" fill="white"/>
</g>
<mask id="mask6" mask-type="alpha" maskUnits="userSpaceOnUse" x="37" y="25" width="4" height="4">
<path fill-rule="evenodd" clip-rule="evenodd" d="M40.6852 27.2372C40.6852 28.1984 39.8972 28.9773 38.9247 28.9773C37.9522 28.9773 37.1633 28.1984 37.1633 27.2372C37.1633 26.276 37.9522 25.4971 38.9247 25.4971C39.8972 25.4971 40.6852 26.276 40.6852 27.2372Z" fill="white"/>
</mask>
<g mask="url(#mask6)">
<path fill-rule="evenodd" clip-rule="evenodd" d="M33.0217 33.0713H44.8267V21.4038H33.0217V33.0713Z" fill="white"/>
</g>
<mask id="mask7" mask-type="alpha" maskUnits="userSpaceOnUse" x="44" y="21" width="5" height="5">
<path fill-rule="evenodd" clip-rule="evenodd" d="M48.2644 23.4911C48.2644 24.4523 47.4764 25.2312 46.5048 25.2312C45.5314 25.2312 44.7434 24.4523 44.7434 23.4911C44.7434 22.5299 45.5314 21.751 46.5048 21.751C47.4764 21.751 48.2644 22.5299 48.2644 23.4911Z" fill="white"/>
</mask>
<g mask="url(#mask7)">
<path fill-rule="evenodd" clip-rule="evenodd" d="M40.6017 29.325H52.4059V17.6575H40.6017V29.325Z" fill="white"/>
</g>
<mask id="mask8" mask-type="alpha" maskUnits="userSpaceOnUse" x="43" y="13" width="7" height="6">
<path fill-rule="evenodd" clip-rule="evenodd" d="M49.145 15.9997C49.145 17.4415 47.9621 18.6099 46.5043 18.6099C45.0455 18.6099 43.8635 17.4415 43.8635 15.9997C43.8635 14.5587 45.0455 13.3904 46.5043 13.3904C47.9621 13.3904 49.145 14.5587 49.145 15.9997Z" fill="white"/>
</mask>
<g mask="url(#mask8)">
<path fill-rule="evenodd" clip-rule="evenodd" d="M39.7219 22.7036H53.2866V9.29688H39.7219V22.7036Z" fill="white"/>
</g>
<mask id="mask9" mask-type="alpha" maskUnits="userSpaceOnUse" x="36" y="9" width="6" height="6">
<path fill-rule="evenodd" clip-rule="evenodd" d="M41.5655 12.2542C41.5655 13.6952 40.3826 14.8644 38.9239 14.8644C37.466 14.8644 36.284 13.6952 36.284 12.2542C36.284 10.8124 37.466 9.64404 38.9239 9.64404C40.3826 9.64404 41.5655 10.8124 41.5655 12.2542Z" fill="white"/>
</mask>
<g mask="url(#mask9)">
<path fill-rule="evenodd" clip-rule="evenodd" d="M32.1423 18.9584H45.707V5.55078H32.1423V18.9584Z" fill="white"/>
</g>
<mask id="mask10" mask-type="alpha" maskUnits="userSpaceOnUse" x="29" y="21" width="5" height="5">
<path fill-rule="evenodd" clip-rule="evenodd" d="M33.1065 23.4911C33.1065 24.4523 32.3176 25.2312 31.346 25.2312C30.3735 25.2312 29.5846 24.4523 29.5846 23.4911C29.5846 22.5299 30.3735 21.751 31.346 21.751C32.3176 21.751 33.1065 22.5299 33.1065 23.4911Z" fill="white"/>
</mask>
<g mask="url(#mask10)">
<path fill-rule="evenodd" clip-rule="evenodd" d="M25.4429 29.325H37.248V17.6575H25.4429V29.325Z" fill="white"/>
</g>
<mask id="mask11" mask-type="alpha" maskUnits="userSpaceOnUse" x="43" y="5" width="7" height="7">
<path fill-rule="evenodd" clip-rule="evenodd" d="M49.145 8.50861C49.145 9.95046 47.963 11.1188 46.5043 11.1188C45.0464 11.1188 43.8635 9.95046 43.8635 8.50861C43.8635 7.06677 45.0464 5.89844 46.5043 5.89844C47.963 5.89844 49.145 7.06677 49.145 8.50861Z" fill="white"/>
</mask>
<g mask="url(#mask11)">
<path fill-rule="evenodd" clip-rule="evenodd" d="M39.7219 15.2128H53.2866V1.80518H39.7219V15.2128Z" fill="white"/>
</g>
<mask id="mask12" mask-type="alpha" maskUnits="userSpaceOnUse" x="52" y="3" width="4" height="4">
<path fill-rule="evenodd" clip-rule="evenodd" d="M55.8442 4.76259C55.8442 5.72381 55.0553 6.5027 54.0837 6.5027C53.1112 6.5027 52.3232 5.72381 52.3232 4.76259C52.3232 3.80135 53.1112 3.02246 54.0837 3.02246C55.0553 3.02246 55.8442 3.80135 55.8442 4.76259Z" fill="white"/>
</mask>
<g mask="url(#mask12)">
<path fill-rule="evenodd" clip-rule="evenodd" d="M48.1815 10.5964H59.9857V-1.07104H48.1815V10.5964Z" fill="white"/>
</g>
<mask id="mask13" mask-type="alpha" maskUnits="userSpaceOnUse" x="52" y="18" width="4" height="4">
<path fill-rule="evenodd" clip-rule="evenodd" d="M55.8441 19.7455C55.8441 20.7067 55.0551 21.4856 54.0835 21.4856C53.1111 21.4856 52.3221 20.7067 52.3221 19.7455C52.3221 18.7843 53.1111 18.0054 54.0835 18.0054C55.0551 18.0054 55.8441 18.7843 55.8441 19.7455Z" fill="white"/>
</mask>
<g mask="url(#mask13)">
<path fill-rule="evenodd" clip-rule="evenodd" d="M48.1805 25.5796H59.9856V13.9121H48.1805V25.5796Z" fill="white"/>
</g>
<mask id="mask14" mask-type="alpha" maskUnits="userSpaceOnUse" x="29" y="6" width="5" height="5">
<path fill-rule="evenodd" clip-rule="evenodd" d="M33.1065 8.50892C33.1065 9.46926 32.3176 10.249 31.346 10.249C30.3735 10.249 29.5846 9.46926 29.5846 8.50892C29.5846 7.54769 30.3735 6.7688 31.346 6.7688C32.3176 6.7688 33.1065 7.54769 33.1065 8.50892Z" fill="white"/>
</mask>
<g mask="url(#mask14)">
<path fill-rule="evenodd" clip-rule="evenodd" d="M25.4429 14.343H37.248V2.67554H25.4429V14.343Z" fill="white"/>
</g>
<mask id="mask15" mask-type="alpha" maskUnits="userSpaceOnUse" x="22" y="25" width="4" height="4">
<path fill-rule="evenodd" clip-rule="evenodd" d="M25.5269 27.2372C25.5269 28.1984 24.7389 28.9773 23.7664 28.9773C22.7939 28.9773 22.0059 28.1984 22.0059 27.2372C22.0059 26.276 22.7939 25.4971 23.7664 25.4971C24.7389 25.4971 25.5269 26.276 25.5269 27.2372Z" fill="white"/>
</mask>
<g mask="url(#mask15)">
<path fill-rule="evenodd" clip-rule="evenodd" d="M17.8643 33.0713H29.6684V21.4038H17.8643V33.0713Z" fill="white"/>
</g>
<mask id="mask16" mask-type="alpha" maskUnits="userSpaceOnUse" x="13" y="13" width="6" height="6">
<path fill-rule="evenodd" clip-rule="evenodd" d="M18.8277 16.0001C18.8277 17.4419 17.6457 18.6103 16.187 18.6103C14.7282 18.6103 13.5462 17.4419 13.5462 16.0001C13.5462 14.5591 14.7282 13.3899 16.187 13.3899C17.6457 13.3899 18.8277 14.5591 18.8277 16.0001Z" fill="white"/>
</mask>
<g mask="url(#mask16)">
<path fill-rule="evenodd" clip-rule="evenodd" d="M9.40454 22.704H22.9692V9.29639H9.40454V22.704Z" fill="white"/>
</g>
<mask id="mask17" mask-type="alpha" maskUnits="userSpaceOnUse" x="5" y="9" width="7" height="6">
<path fill-rule="evenodd" clip-rule="evenodd" d="M11.2488 12.2542C11.2488 13.6961 10.0667 14.8644 8.60799 14.8644C7.15015 14.8644 5.96722 13.6961 5.96722 12.2542C5.96722 10.8133 7.15015 9.64404 8.60799 9.64404C10.0667 9.64404 11.2488 10.8133 11.2488 12.2542Z" fill="white"/>
</mask>
<g mask="url(#mask17)">
<path fill-rule="evenodd" clip-rule="evenodd" d="M1.82556 18.9584H15.3903V5.55078H1.82556V18.9584Z" fill="#EC0B43"/>
</g>
<mask id="mask18" mask-type="alpha" maskUnits="userSpaceOnUse" x="0" y="22" width="3" height="3">
<path fill-rule="evenodd" clip-rule="evenodd" d="M2.05781 23.4914C2.05781 24.0534 1.59664 24.5083 1.0289 24.5083C0.460275 24.5083 0 24.0534 0 23.4914C0 22.9293 0.460275 22.4744 1.0289 22.4744C1.59664 22.4744 2.05781 22.9293 2.05781 23.4914Z" fill="white"/>
</mask>
<g mask="url(#mask18)">
<path fill-rule="evenodd" clip-rule="evenodd" d="M-4.14166 28.6026H6.1993V18.3813H-4.14166V28.6026Z" fill="white"/>
</g>
<mask id="mask19" mask-type="alpha" maskUnits="userSpaceOnUse" x="0" y="14" width="3" height="4">
<path fill-rule="evenodd" clip-rule="evenodd" d="M2.05781 15.9997C2.05781 16.5617 1.59664 17.0166 1.0289 17.0166C0.460275 17.0166 0 16.5617 0 15.9997C0 15.4376 0.460275 14.9827 1.0289 14.9827C1.59664 14.9827 2.05781 15.4376 2.05781 15.9997Z" fill="white"/>
</mask>
<g mask="url(#mask19)">
<path fill-rule="evenodd" clip-rule="evenodd" d="M-4.14166 21.1104H6.1993V10.8892H-4.14166V21.1104Z" fill="white"/>
</g>
<mask id="mask20" mask-type="alpha" maskUnits="userSpaceOnUse" x="15" y="22" width="3" height="3">
<path fill-rule="evenodd" clip-rule="evenodd" d="M17.2161 23.4389C17.2161 24.0009 16.7549 24.4559 16.1872 24.4559C15.6185 24.4559 15.1583 24.0009 15.1583 23.4389C15.1583 22.8768 15.6185 22.4219 16.1872 22.4219C16.7549 22.4219 17.2161 22.8768 17.2161 23.4389Z" fill="white"/>
</mask>
<g mask="url(#mask20)">
<path fill-rule="evenodd" clip-rule="evenodd" d="M11.0166 28.5498H21.3576V18.3286H11.0166V28.5498Z" fill="white"/>
</g>
<mask id="mask21" mask-type="alpha" maskUnits="userSpaceOnUse" x="15" y="0" width="3" height="3">
<path fill-rule="evenodd" clip-rule="evenodd" d="M17.2161 1.01699C17.2161 1.57903 16.7558 2.03397 16.1872 2.03397C15.6185 2.03397 15.1583 1.57903 15.1583 1.01699C15.1583 0.454949 15.6185 0 16.1872 0C16.7558 0 17.2161 0.454949 17.2161 1.01699Z" fill="white"/>
</mask>
<g mask="url(#mask21)">
<path fill-rule="evenodd" clip-rule="evenodd" d="M11.0166 6.12796H21.3576V-4.09326H11.0166V6.12796Z" fill="white"/>
</g>
<mask id="mask22" mask-type="alpha" maskUnits="userSpaceOnUse" x="30" y="29" width="3" height="3">
<path fill-rule="evenodd" clip-rule="evenodd" d="M32.3217 30.9831C32.3217 31.5451 31.8605 32 31.2919 32C30.7233 32 30.263 31.5451 30.263 30.9831C30.263 30.421 30.7233 29.9661 31.2919 29.9661C31.8605 29.9661 32.3217 30.421 32.3217 30.9831Z" fill="white"/>
</mask>
<g mask="url(#mask22)">
<path fill-rule="evenodd" clip-rule="evenodd" d="M26.1213 36.094H36.4632V25.8728H26.1213V36.094Z" fill="white"/>
</g>
<mask id="mask23" mask-type="alpha" maskUnits="userSpaceOnUse" x="7" y="3" width="3" height="3">
<path fill-rule="evenodd" clip-rule="evenodd" d="M9.63744 4.76259C9.63744 5.32463 9.17626 5.77958 8.60854 5.77958C8.03901 5.77958 7.57874 5.32463 7.57874 4.76259C7.57874 4.20055 8.03901 3.74561 8.60854 3.74561C9.17626 3.74561 9.63744 4.20055 9.63744 4.76259Z" fill="white"/>
</mask>
<g mask="url(#mask23)">
<path fill-rule="evenodd" clip-rule="evenodd" d="M3.43707 9.87381H13.7789V-0.347412H3.43707V9.87381Z" fill="white"/>
</g>
<mask id="mask24" mask-type="alpha" maskUnits="userSpaceOnUse" x="22" y="3" width="3" height="3">
<path fill-rule="evenodd" clip-rule="evenodd" d="M24.7953 4.76259C24.7953 5.32463 24.3341 5.77958 23.7664 5.77958C23.1978 5.77958 22.7375 5.32463 22.7375 4.76259C22.7375 4.20055 23.1978 3.74561 23.7664 3.74561C24.3341 3.74561 24.7953 4.20055 24.7953 4.76259Z" fill="white"/>
</mask>
<g mask="url(#mask24)">
<path fill-rule="evenodd" clip-rule="evenodd" d="M18.5958 9.87381H28.9368V-0.347412H18.5958V9.87381Z" fill="white"/>
</g>
<mask id="mask25" mask-type="alpha" maskUnits="userSpaceOnUse" x="30" y="29" width="3" height="3">
<path fill-rule="evenodd" clip-rule="evenodd" d="M32.3217 30.9831C32.3217 31.5451 31.8605 32 31.2919 32C30.7233 32 30.263 31.5451 30.263 30.9831C30.263 30.421 30.7233 29.9661 31.2919 29.9661C31.8605 29.9661 32.3217 30.421 32.3217 30.9831Z" fill="white"/>
</mask>
<g mask="url(#mask25)">
<path fill-rule="evenodd" clip-rule="evenodd" d="M26.1213 36.094H36.4632V25.8728H26.1213V36.094Z" fill="white"/>
</g>
<mask id="mask26" mask-type="alpha" maskUnits="userSpaceOnUse" x="68" y="11" width="3" height="3">
<path fill-rule="evenodd" clip-rule="evenodd" d="M70.2715 12.2543C70.2715 12.8163 69.8103 13.2713 69.2426 13.2713C68.6739 13.2713 68.2128 12.8163 68.2128 12.2543C68.2128 11.6922 68.6739 11.2373 69.2426 11.2373C69.8103 11.2373 70.2715 11.6922 70.2715 12.2543Z" fill="white"/>
</mask>
<g mask="url(#mask26)">
<path fill-rule="evenodd" clip-rule="evenodd" d="M64.0711 17.3653H74.413V7.14404H64.0711V17.3653Z" fill="white"/>
</g>
<mask id="mask27" mask-type="alpha" maskUnits="userSpaceOnUse" x="53" y="26" width="3" height="3">
<path fill-rule="evenodd" clip-rule="evenodd" d="M55.1127 27.237C55.1127 27.799 54.6524 28.2539 54.0838 28.2539C53.5152 28.2539 53.054 27.799 53.054 27.237C53.054 26.6749 53.5152 26.22 54.0838 26.22C54.6524 26.22 55.1127 26.6749 55.1127 27.237Z" fill="white"/>
</mask>
<g mask="url(#mask27)">
<path fill-rule="evenodd" clip-rule="evenodd" d="M48.9124 32.3477H59.2542V22.1265H48.9124V32.3477Z" fill="white"/>
</g>
<mask id="mask28" mask-type="alpha" maskUnits="userSpaceOnUse" x="59" y="5" width="6" height="7">
<path fill-rule="evenodd" clip-rule="evenodd" d="M64.3036 8.50862C64.3036 9.94958 63.1206 11.1179 61.6628 11.1179C60.2041 11.1179 59.022 9.94958 59.022 8.50862C59.022 7.06767 60.2041 5.89844 61.6628 5.89844C63.1206 5.89844 64.3036 7.06767 64.3036 8.50862Z" fill="white"/>
</mask>
<g mask="url(#mask28)">
<path fill-rule="evenodd" clip-rule="evenodd" d="M54.8804 15.2119H68.4451V1.80518H54.8804V15.2119Z" fill="white"/>
</g>
<mask id="mask29" mask-type="alpha" maskUnits="userSpaceOnUse" x="51" y="9" width="6" height="6">
<path fill-rule="evenodd" clip-rule="evenodd" d="M56.7243 12.2547C56.7243 13.6957 55.5413 14.864 54.0835 14.864C52.6248 14.864 51.4427 13.6957 51.4427 12.2547C51.4427 10.8138 52.6248 9.64453 54.0835 9.64453C55.5413 9.64453 56.7243 10.8138 56.7243 12.2547Z" fill="white"/>
</mask>
<g mask="url(#mask29)">
<path fill-rule="evenodd" clip-rule="evenodd" d="M47.3011 18.958H60.8658V5.55127H47.3011V18.958Z" fill="white"/>
</g>
<mask id="mask30" mask-type="alpha" maskUnits="userSpaceOnUse" x="60" y="22" width="3" height="3">
<path fill-rule="evenodd" clip-rule="evenodd" d="M62.6918 23.4914C62.6918 24.0534 62.2307 24.5083 61.6629 24.5083C61.0934 24.5083 60.634 24.0534 60.634 23.4914C60.634 22.9293 61.0934 22.4744 61.6629 22.4744C62.2307 22.4744 62.6918 22.9293 62.6918 23.4914Z" fill="white"/>
</mask>
<g mask="url(#mask30)">
<path fill-rule="evenodd" clip-rule="evenodd" d="M56.4924 28.6026H66.8334V18.3813H56.4924V28.6026Z" fill="white"/>
</g>
<mask id="mask31" mask-type="alpha" maskUnits="userSpaceOnUse" x="59" y="14" width="5" height="4">
<path fill-rule="evenodd" clip-rule="evenodd" d="M63.4235 15.9999C63.4235 16.9602 62.6355 17.74 61.663 17.74C60.6905 17.74 59.9025 16.9602 59.9025 15.9999C59.9025 15.0387 60.6905 14.2598 61.663 14.2598C62.6355 14.2598 63.4235 15.0387 63.4235 15.9999Z" fill="white"/>
</mask>
<g mask="url(#mask31)">
<path fill-rule="evenodd" clip-rule="evenodd" d="M55.7608 21.8337H67.565V10.1663H55.7608V21.8337Z" fill="white"/>
</g>
<mask id="mask32" mask-type="alpha" maskUnits="userSpaceOnUse" x="37" y="3" width="3" height="3">
<path fill-rule="evenodd" clip-rule="evenodd" d="M39.9533 4.76259C39.9533 5.32463 39.493 5.77958 38.9253 5.77958C38.3558 5.77958 37.8955 5.32463 37.8955 4.76259C37.8955 4.20055 38.3558 3.74561 38.9253 3.74561C39.493 3.74561 39.9533 4.20055 39.9533 4.76259Z" fill="white"/>
</mask>
<g mask="url(#mask32)">
<path fill-rule="evenodd" clip-rule="evenodd" d="M33.7538 9.87381H44.0948V-0.347412H33.7538V9.87381Z" fill="white"/>
</g>
<mask id="mask33" mask-type="alpha" maskUnits="userSpaceOnUse" x="60" y="0" width="3" height="3">
<path fill-rule="evenodd" clip-rule="evenodd" d="M62.6918 1.01699C62.6918 1.57903 62.2307 2.03398 61.6629 2.03398C61.0934 2.03398 60.634 1.57903 60.634 1.01699C60.634 0.454949 61.0934 0 61.6629 0C62.2307 0 62.6918 0.454949 62.6918 1.01699Z" fill="white"/>
</mask>
<g mask="url(#mask33)">
<path fill-rule="evenodd" clip-rule="evenodd" d="M56.4924 6.12796H66.8334V-4.09326H56.4924V6.12796Z" fill="white"/>
</g>
<mask id="mask34" mask-type="alpha" maskUnits="userSpaceOnUse" x="68" y="3" width="3" height="3">
<path fill-rule="evenodd" clip-rule="evenodd" d="M70.271 4.76259C70.271 5.32463 69.8098 5.77958 69.2421 5.77958C68.6735 5.77958 68.2123 5.32463 68.2123 4.76259C68.2123 4.20055 68.6735 3.74561 69.2421 3.74561C69.8098 3.74561 70.271 4.20055 70.271 4.76259Z" fill="white"/>
</mask>
<g mask="url(#mask34)">
<path fill-rule="evenodd" clip-rule="evenodd" d="M64.0706 9.87381H74.4125V-0.347412H64.0706V9.87381Z" fill="white"/>
</g>
<mask id="mask35" mask-type="alpha" maskUnits="userSpaceOnUse" x="79" y="8" width="13" height="16">
<path fill-rule="evenodd" clip-rule="evenodd" d="M91.4848 10.6195C91.7141 10.0752 91.7571 9.62999 91.6129 9.29718C91.5036 9.04316 91.2851 8.85198 90.9627 8.72895C90.1792 8.44571 89.5568 8.8148 89.1405 9.8132L86.2132 16.8321L82.1755 9.6645C81.9373 9.22018 81.6498 8.92013 81.3212 8.77231C80.9872 8.62185 80.6191 8.64397 80.226 8.84578C79.8624 9.04759 79.6627 9.35826 79.6332 9.76895C79.6045 10.1681 79.712 10.5664 79.9493 10.9532L84.9102 19.4759C84.6908 20.0371 84.4562 20.4593 84.2135 20.7328C83.9718 21.0054 83.6924 21.1373 83.3593 21.1373C83.2089 21.1373 83.0673 21.1231 82.9384 21.0965C82.8086 21.07 82.6554 21.0213 82.4826 20.9532C82.2981 20.8806 82.171 20.8372 82.1029 20.8248C81.3561 20.5832 80.8475 20.7912 80.603 21.4258C80.3299 22.1463 80.5949 22.7296 81.3919 23.1597C81.9149 23.4483 82.6214 23.5943 83.4874 23.5943C84.4518 23.5943 85.2541 23.2314 85.8756 22.5172C86.4854 21.8153 87.1337 20.6726 87.8045 19.1219L91.4848 10.6195Z" fill="white"/>
</mask>
<g mask="url(#mask35)">
<path fill-rule="evenodd" clip-rule="evenodd" d="M75.487 27.6881H95.8377V4.54297H75.487V27.6881Z" fill="white"/>
</g>
<mask id="mask36" mask-type="alpha" maskUnits="userSpaceOnUse" x="94" y="8" width="13" height="16">
<path fill-rule="evenodd" clip-rule="evenodd" d="M95.5118 23.3819C95.9345 23.3819 96.273 23.2518 96.5166 22.9951C96.7602 22.7402 96.8828 22.4074 96.8828 22.0056V17.0587H103.512V22.0056C103.512 22.4065 103.631 22.7393 103.867 22.9942C104.104 23.2518 104.446 23.3819 104.883 23.3819C105.306 23.3819 105.644 23.2518 105.888 22.9951C106.13 22.7402 106.254 22.4074 106.254 22.0056V10.015C106.254 9.61406 106.131 9.27772 105.889 9.01572C105.644 8.75108 105.307 8.61743 104.883 8.61743C104.445 8.61743 104.103 8.75108 103.866 9.01662C103.631 9.27772 103.512 9.61406 103.512 10.015V14.6229H96.8828V10.015C96.8828 9.61317 96.7602 9.27683 96.5175 9.01572C96.273 8.75108 95.9345 8.61743 95.5118 8.61743C95.074 8.61743 94.7319 8.75108 94.4936 9.01662C94.26 9.27861 94.1409 9.61406 94.1409 10.015V22.0056C94.1409 22.4065 94.26 22.7393 94.4955 22.9942C94.7319 23.2518 95.0749 23.3819 95.5118 23.3819Z" fill="white"/>
</mask>
<g mask="url(#mask36)">
<path fill-rule="evenodd" clip-rule="evenodd" d="M89.9993 27.4756H110.396V4.52393H89.9993V27.4756Z" fill="white"/>
</g>
<mask id="mask37" mask-type="alpha" maskUnits="userSpaceOnUse" x="110" y="8" width="13" height="16">
<path fill-rule="evenodd" clip-rule="evenodd" d="M111.452 23.3819C111.892 23.3819 112.318 23.1217 112.721 22.6066L119.515 13.4298V22.0056C119.515 22.3924 119.634 22.7216 119.869 22.9827C120.106 23.2474 120.456 23.3819 120.909 23.3819C121.346 23.3819 121.685 23.2518 121.915 22.9933C122.143 22.7384 122.257 22.4065 122.257 22.0056V10.015C122.257 9.08742 121.818 8.61743 120.951 8.61743C120.453 8.61743 120.012 8.87057 119.64 9.37154L112.887 18.6085V10.015C112.887 9.61406 112.768 9.27861 112.533 9.01662C112.295 8.75108 111.953 8.61743 111.515 8.61743C111.063 8.61743 110.717 8.75196 110.486 9.0175C110.259 9.27861 110.144 9.61406 110.144 10.015V22.0056C110.144 22.4348 110.26 22.7756 110.489 23.0164C110.719 23.2589 111.043 23.3819 111.452 23.3819Z" fill="white"/>
</mask>
<g mask="url(#mask37)">
<path fill-rule="evenodd" clip-rule="evenodd" d="M106.003 27.4756H126.399V4.52393H106.003V27.4756Z" fill="white"/>
</g>
<mask id="mask38" mask-type="alpha" maskUnits="userSpaceOnUse" x="126" y="8" width="12" height="16">
<path fill-rule="evenodd" clip-rule="evenodd" d="M133.515 20.7076C132.997 21.0484 132.21 21.2219 131.178 21.2219C130.251 21.2219 129.446 21.182 128.783 21.1041V16.8689H131.156C133.257 16.8689 134.279 17.5743 134.279 19.0241C134.279 19.8075 134.022 20.3739 133.515 20.7076ZM130.879 14.7923H128.783V10.897C129.433 10.8323 130.065 10.7996 130.664 10.7996C132.62 10.7996 133.572 11.4147 133.572 12.6796C133.572 14.1019 132.691 14.7923 130.879 14.7923ZM134.574 15.4773C135.097 15.2029 135.523 14.8037 135.841 14.2895C136.199 13.7141 136.379 13.0875 136.379 12.4263C136.379 9.82852 134.535 8.51147 130.899 8.51147C129.618 8.51147 128.454 8.59733 127.44 8.76727C126.582 8.91508 126.148 9.42048 126.148 10.2693V21.8155C126.148 22.6511 126.576 23.1352 127.42 23.2538C128.431 23.4087 129.66 23.4875 131.071 23.4875C135.061 23.4875 137.084 21.9509 137.084 18.9186C137.084 18.0706 136.841 17.3307 136.361 16.7191C135.92 16.1579 135.32 15.741 134.574 15.4773Z" fill="white"/>
</mask>
<g mask="url(#mask38)">
<path fill-rule="evenodd" clip-rule="evenodd" d="M122.006 27.5817H141.226V4.41846H122.006V27.5817Z" fill="white"/>
</g>
<mask id="mask39" mask-type="alpha" maskUnits="userSpaceOnUse" x="140" y="8" width="11" height="16">
<path fill-rule="evenodd" clip-rule="evenodd" d="M150.119 23.0522C150.358 22.8318 150.478 22.5361 150.478 22.175C150.478 21.7997 150.358 21.497 150.119 21.2766C149.881 21.058 149.563 20.9465 149.171 20.9465H143.075V17.0166H147.759C148.166 17.0166 148.493 16.9016 148.729 16.675C148.966 16.4475 149.087 16.1492 149.087 15.7881C149.087 15.4119 148.966 15.1128 148.727 14.8994C148.49 14.6879 148.165 14.5808 147.759 14.5808H143.075V11.0528H148.957C149.35 11.0528 149.668 10.9421 149.905 10.7235C150.143 10.5031 150.264 10.2075 150.264 9.84636C150.264 9.4693 150.143 9.16749 149.905 8.94709C149.668 8.72847 149.35 8.61694 148.957 8.61694H141.726C141.289 8.61694 140.943 8.75148 140.698 9.01524C140.456 9.27724 140.333 9.61358 140.333 10.0154V21.9847C140.333 22.3866 140.459 22.7229 140.71 22.9849C140.961 23.2487 141.31 23.3823 141.747 23.3823H149.171C149.563 23.3823 149.882 23.2708 150.119 23.0522Z" fill="white"/>
</mask>
<g mask="url(#mask39)">
<path fill-rule="evenodd" clip-rule="evenodd" d="M136.191 27.476H154.619V4.52344H136.191V27.476Z" fill="white"/>
</g>
<mask id="mask40" mask-type="alpha" maskUnits="userSpaceOnUse" x="153" y="8" width="11" height="16">
<path fill-rule="evenodd" clip-rule="evenodd" d="M155.934 11.0219C156.529 10.9449 157.126 10.9059 157.708 10.9059C159.68 10.9059 160.637 11.7008 160.637 13.3364C160.637 15.0854 159.63 15.9351 157.557 15.9351C156.88 15.9351 156.335 15.9103 155.934 15.8617V11.0219ZM163.508 13.2723C163.508 11.6437 162.988 10.4285 161.965 9.66107C160.949 8.89811 159.537 8.51221 157.772 8.51221C156.516 8.51221 155.402 8.60514 154.46 8.78836C153.618 8.95211 153.191 9.47874 153.191 10.3532V22.0066C153.191 22.4075 153.311 22.7403 153.546 22.9952C153.783 23.2519 154.125 23.3829 154.563 23.3829C154.985 23.3829 155.323 23.2528 155.568 22.9961C155.81 22.7412 155.934 22.4084 155.934 22.0066V18.2156C156.36 18.2767 156.956 18.3068 157.708 18.3068C159.417 18.3068 160.825 17.8811 161.892 17.0402C162.964 16.1949 163.508 14.9275 163.508 13.2723Z" fill="white"/>
</mask>
<g mask="url(#mask40)">
<path fill-rule="evenodd" clip-rule="evenodd" d="M149.049 27.4771H167.649V4.41919H149.049V27.4771Z" fill="white"/>
</g>
<mask id="mask41" mask-type="alpha" maskUnits="userSpaceOnUse" x="165" y="8" width="13" height="16">
<path fill-rule="evenodd" clip-rule="evenodd" d="M175.572 20.2607C174.549 20.8564 173.541 21.1582 172.578 21.1582C171.37 21.1582 170.359 20.6953 169.574 19.7828C168.786 18.8658 168.387 17.5859 168.387 15.9786C168.387 14.427 168.759 13.1675 169.491 12.2355C170.682 10.7228 172.643 10.4263 175.287 11.4283C176.176 11.7566 176.762 11.6212 177.022 11.0459C177.327 10.398 177.144 9.84302 176.479 9.39427C175.528 8.73841 174.179 8.40649 172.471 8.40649C170.302 8.40649 168.58 9.10307 167.356 10.4768C166.135 11.8469 165.516 13.7047 165.516 15.9998C165.516 18.3224 166.098 20.1873 167.248 21.5433C168.401 22.9046 170.13 23.5941 172.385 23.5941C174.165 23.5941 175.651 23.1683 176.804 22.3283C177.175 22.0495 177.405 21.7265 177.489 21.3698C177.572 21.0069 177.513 20.6909 177.314 20.4342C176.934 19.8925 176.342 19.827 175.572 20.2607Z" fill="white"/>
</mask>
<g mask="url(#mask41)">
<path fill-rule="evenodd" clip-rule="evenodd" d="M161.375 27.688H181.667V4.31323H161.375V27.688Z" fill="white"/>
</g>
<mask id="mask42" mask-type="alpha" maskUnits="userSpaceOnUse" x="180" y="8" width="13" height="16">
<path fill-rule="evenodd" clip-rule="evenodd" d="M191.278 8.61743C190.78 8.61743 190.339 8.87146 189.966 9.37243L183.213 18.6094V10.015C183.213 9.61494 183.095 9.2786 182.86 9.01661C182.622 8.75196 182.28 8.61743 181.842 8.61743C181.39 8.61743 181.044 8.75196 180.813 9.01749C180.586 9.27948 180.471 9.61494 180.471 10.015V22.0056C180.471 22.4357 180.588 22.7756 180.815 23.0164C181.046 23.2589 181.37 23.3819 181.779 23.3819C182.218 23.3819 182.645 23.1217 183.047 22.6066L189.842 13.4306V22.0056C189.842 22.3932 189.962 22.7216 190.196 22.9827C190.433 23.2483 190.783 23.3819 191.235 23.3819C191.673 23.3819 192.011 23.2518 192.242 22.9933C192.47 22.7384 192.584 22.4065 192.584 22.0056V10.015C192.584 9.08742 192.145 8.61743 191.278 8.61743Z" fill="white"/>
</mask>
<g mask="url(#mask42)">
<path fill-rule="evenodd" clip-rule="evenodd" d="M176.33 27.4756H196.726V4.52393H176.33V27.4756Z" fill="white"/>
</g>
<mask id="mask43" mask-type="alpha" maskUnits="userSpaceOnUse" x="194" y="8" width="14" height="16">
<path fill-rule="evenodd" clip-rule="evenodd" d="M207.754 9.82471C207.754 9.44854 207.632 9.14938 207.393 8.93606C207.157 8.72453 206.831 8.61743 206.426 8.61743H196.284C195.893 8.61743 195.575 8.72453 195.338 8.93606C195.098 9.14938 194.977 9.44854 194.977 9.82471C194.977 10.1858 195.097 10.4841 195.335 10.7116C195.572 10.9382 195.891 11.0532 196.284 11.0532H199.984V22.0056C199.984 22.4065 200.103 22.7393 200.338 22.9942C200.575 23.2518 200.917 23.3819 201.355 23.3819C201.792 23.3819 202.134 23.2518 202.372 22.9951C202.606 22.7393 202.726 22.4074 202.726 22.0056V11.0532H206.426C206.833 11.0532 207.159 10.9382 207.396 10.7116C207.633 10.4841 207.754 10.1858 207.754 9.82471Z" fill="white"/>
</mask>
<g mask="url(#mask43)">
<path fill-rule="evenodd" clip-rule="evenodd" d="M190.835 27.4756H211.896V4.52393H190.835V27.4756Z" fill="white"/>
</g>
<mask id="mask44" mask-type="alpha" maskUnits="userSpaceOnUse" x="210" y="8" width="11" height="16">
<path fill-rule="evenodd" clip-rule="evenodd" d="M218.985 20.9465H212.888V17.0166H217.573C217.979 17.0166 218.306 16.9016 218.542 16.675C218.78 16.4475 218.901 16.1492 218.901 15.7881C218.901 15.4119 218.78 15.1128 218.541 14.8994C218.303 14.6879 217.978 14.5808 217.573 14.5808H212.888V11.0528H218.771C219.163 11.0528 219.482 10.9421 219.718 10.7226C219.956 10.5022 220.077 10.2075 220.077 9.84547C220.077 9.4693 219.956 9.16749 219.718 8.94709C219.482 8.72847 219.163 8.61694 218.771 8.61694H211.539C211.102 8.61694 210.756 8.75148 210.512 9.01524C210.269 9.27724 210.146 9.61358 210.146 10.0145V21.9847C210.146 22.3866 210.273 22.7229 210.523 22.984C210.774 23.2487 211.123 23.3823 211.56 23.3823H218.985C219.376 23.3823 219.695 23.2708 219.932 23.0522C220.17 22.8318 220.291 22.5361 220.291 22.175C220.291 21.7997 220.17 21.497 219.932 21.2766C219.695 21.0571 219.376 20.9465 218.985 20.9465Z" fill="white"/>
</mask>
<g mask="url(#mask44)">
<path fill-rule="evenodd" clip-rule="evenodd" d="M206.005 27.476H224.433V4.52344H206.005V27.476Z" fill="white"/>
</g>
<mask id="mask45" mask-type="alpha" maskUnits="userSpaceOnUse" x="221" y="8" width="14" height="16">
<path fill-rule="evenodd" clip-rule="evenodd" d="M234.071 9.82471C234.071 9.44854 233.95 9.14938 233.71 8.93606C233.474 8.72453 233.148 8.61743 232.743 8.61743H222.601C222.21 8.61743 221.891 8.72453 221.654 8.93606C221.415 9.14938 221.293 9.44854 221.293 9.82471C221.293 10.1858 221.414 10.4841 221.652 10.7116C221.889 10.9382 222.208 11.0532 222.601 11.0532H226.301V22.0056C226.301 22.4065 226.42 22.7393 226.655 22.9942C226.892 23.2518 227.234 23.3819 227.672 23.3819C228.109 23.3819 228.451 23.2518 228.688 22.9951C228.924 22.7393 229.043 22.4074 229.043 22.0056V11.0532H232.743C233.149 11.0532 233.475 10.9382 233.713 10.7116C233.95 10.4841 234.071 10.1858 234.071 9.82471Z" fill="white"/>
</mask>
<g mask="url(#mask45)">
<path fill-rule="evenodd" clip-rule="evenodd" d="M217.152 27.4756H238.212V4.52393H217.152V27.4756Z" fill="white"/>
</g>
<mask id="mask46" mask-type="alpha" maskUnits="userSpaceOnUse" x="242" y="8" width="13" height="16">
<path fill-rule="evenodd" clip-rule="evenodd" d="M254.567 22.0056V10.015C254.567 9.08742 254.127 8.61743 253.26 8.61743C252.763 8.61743 252.321 8.87057 251.949 9.37154L245.196 18.6085V10.015C245.196 9.61406 245.077 9.27861 244.843 9.01662C244.605 8.75108 244.263 8.61743 243.825 8.61743C243.373 8.61743 243.026 8.75196 242.795 9.0175C242.568 9.27949 242.454 9.61495 242.454 10.015V22.0056C242.454 22.4348 242.569 22.7747 242.798 23.0164C243.028 23.2589 243.352 23.3819 243.761 23.3819C244.201 23.3819 244.627 23.1217 245.029 22.6066L251.825 13.4298V22.0056C251.825 22.3924 251.944 22.7216 252.179 22.9827C252.415 23.2474 252.765 23.3819 253.217 23.3819C253.655 23.3819 253.994 23.2509 254.225 22.9933C254.452 22.7384 254.567 22.4065 254.567 22.0056Z" fill="white"/>
</mask>
<g mask="url(#mask46)">
<path fill-rule="evenodd" clip-rule="evenodd" d="M238.312 27.4756H258.708V4.52393H238.312V27.4756Z" fill="white"/>
</g>
<mask id="mask47" mask-type="alpha" maskUnits="userSpaceOnUse" x="256" y="8" width="14" height="16">
<path fill-rule="evenodd" clip-rule="evenodd" d="M268.409 8.61743H258.267C257.876 8.61743 257.557 8.72453 257.32 8.93606C257.082 9.14938 256.96 9.44854 256.96 9.82471C256.96 10.1858 257.081 10.4841 257.318 10.7116C257.555 10.9382 257.874 11.0532 258.267 11.0532H261.967V22.0056C261.967 22.4065 262.086 22.7393 262.321 22.9942C262.558 23.2518 262.901 23.3819 263.337 23.3819C263.775 23.3819 264.117 23.2518 264.355 22.9951C264.589 22.7393 264.709 22.4074 264.709 22.0056V11.0532H268.409C268.815 11.0532 269.142 10.9382 269.378 10.7116C269.617 10.4841 269.737 10.1858 269.737 9.82471C269.737 9.44854 269.616 9.14938 269.377 8.93606C269.139 8.72453 268.814 8.61743 268.409 8.61743Z" fill="white"/>
</mask>
<g mask="url(#mask47)">
<path fill-rule="evenodd" clip-rule="evenodd" d="M252.818 27.4756H273.878V4.52393H252.818V27.4756Z" fill="white"/>
</g>
<mask id="mask48" mask-type="alpha" maskUnits="userSpaceOnUse" x="271" y="8" width="15" height="16">
<path fill-rule="evenodd" clip-rule="evenodd" d="M284.476 8.61743C283.947 8.61743 283.498 8.90155 283.139 9.46182L278.935 16.1754L274.645 9.48395C274.288 8.90863 273.816 8.61743 273.244 8.61743C272.866 8.61743 272.553 8.73603 272.315 8.97059C272.078 9.20514 271.958 9.56361 271.958 10.0363V22.0056C271.958 22.919 272.391 23.3819 273.244 23.3819C274.097 23.3819 274.529 22.919 274.529 22.0056V13.8006L277.535 18.4563C277.864 18.975 278.292 19.237 278.807 19.237C279.308 19.237 279.729 18.967 280.058 18.435L283.019 13.7033V22.0056C283.019 22.4074 283.143 22.7402 283.386 22.9951C283.63 23.2527 283.969 23.3819 284.391 23.3819C284.828 23.3819 285.17 23.2518 285.408 22.9951C285.643 22.7402 285.762 22.4074 285.762 22.0056V10.015C285.762 9.60079 285.651 9.26178 285.431 9.00687C285.208 8.74843 284.886 8.61743 284.476 8.61743Z" fill="white"/>
</mask>
<g mask="url(#mask48)">
<path fill-rule="evenodd" clip-rule="evenodd" d="M267.817 27.4756H289.904V4.52393H267.817V27.4756Z" fill="white"/>
</g>
<mask id="mask49" mask-type="alpha" maskUnits="userSpaceOnUse" x="289" y="8" width="15" height="16">
<path fill-rule="evenodd" clip-rule="evenodd" d="M303.242 15.9126V16.0879C303.225 18.2588 302.6 20.0655 301.38 21.4593C300.143 22.8755 298.371 23.5942 296.115 23.5942C293.86 23.5942 292.092 22.8755 290.861 21.4593C289.633 20.0467 289.01 18.2101 289.01 16C289.01 13.8031 289.633 11.9701 290.86 10.5504C292.092 9.12801 293.859 8.40576 296.115 8.40576C298.372 8.40576 300.143 9.12801 301.38 10.5504C302.6 11.9512 303.225 13.7545 303.242 15.9126ZM299.266 19.7228C298.538 20.6751 297.478 21.1575 296.115 21.1575C294.767 21.1575 293.714 20.6751 292.986 19.7228C292.253 18.7624 291.881 17.51 291.881 16C291.881 14.49 292.253 13.2376 292.986 12.2764C293.714 11.324 294.767 10.8416 296.115 10.8416C297.478 10.8416 298.538 11.324 299.266 12.2764C299.999 13.2367 300.371 14.4891 300.371 16C300.371 17.51 299.999 18.7624 299.266 19.7228Z" fill="white"/>
</mask>
<g mask="url(#mask49)">
<path fill-rule="evenodd" clip-rule="evenodd" d="M284.869 27.6882H307.384V4.3125H284.869V27.6882Z" fill="white"/>
</g>
</svg>
