<svg width="16" height="16" viewBox="0 0 16 16" fill="none" xmlns="http://www.w3.org/2000/svg">
<path d="M14.101 1.92383H1.89906C0.851928 1.92383 0 2.74196 0 3.74756V12.2525C0 13.2581 0.851928 14.0762 1.89906 14.0762H14.101C15.1481 14.0762 16 13.2581 16 12.2525V3.74756C16 2.74196 15.1481 1.92383 14.101 1.92383ZM14.101 12.4661H1.89906C1.74514 12.4661 1.61015 12.3663 1.61015 12.2525V4.8722L7.12875 9.5313C7.24189 9.62685 7.38576 9.67944 7.5339 9.67944L8.46593 9.67948C8.61399 9.67948 8.75795 9.62685 8.87113 9.5313L14.39 4.87204V12.2526C14.3899 12.3663 14.2549 12.4661 14.101 12.4661ZM8.00002 8.08077L2.63249 3.53389H13.3675L8.00002 8.08077Z" fill="white"/>
</svg>
